<?xml version="1.0" encoding="UTF-8" standalone="no"?>
<!-- Created with Inkscape (http://www.inkscape.org/) -->

<svg
   xmlns:ns0="http://www.iki.fi/pav/software/textext/"
   xmlns:dc="http://purl.org/dc/elements/1.1/"
   xmlns:cc="http://creativecommons.org/ns#"
   xmlns:rdf="http://www.w3.org/1999/02/22-rdf-syntax-ns#"
   xmlns:svg="http://www.w3.org/2000/svg"
   xmlns="http://www.w3.org/2000/svg"
   xmlns:xlink="http://www.w3.org/1999/xlink"
   xmlns:sodipodi="http://sodipodi.sourceforge.net/DTD/sodipodi-0.dtd"
   xmlns:inkscape="http://www.inkscape.org/namespaces/inkscape"
   width="296.771"
   height="100.11383"
   id="svg2"
   version="1.1"
   inkscape:version="0.47 r22583"
   sodipodi:docname="Micrographs.svg"
   inkscape:export-filename="/home/jack/Documents/School/Grad/Thesis/Figures/Micrographs.png"
   inkscape:export-xdpi="300"
   inkscape:export-ydpi="300">
  <defs
     id="defs4">
    <inkscape:perspective
       sodipodi:type="inkscape:persp3d"
       inkscape:vp_x="0 : 526.18109 : 1"
       inkscape:vp_y="0 : 1000 : 0"
       inkscape:vp_z="744.09448 : 526.18109 : 1"
       inkscape:persp3d-origin="372.04724 : 350.78739 : 1"
       id="perspective10" />
    <inkscape:perspective
       id="perspective2884"
       inkscape:persp3d-origin="0.5 : 0.33333333 : 1"
       inkscape:vp_z="1 : 0.5 : 1"
       inkscape:vp_y="0 : 1000 : 0"
       inkscape:vp_x="0 : 0.5 : 1"
       sodipodi:type="inkscape:persp3d" />
    <inkscape:perspective
       id="perspective2955"
       inkscape:persp3d-origin="0.5 : 0.33333333 : 1"
       inkscape:vp_z="1 : 0.5 : 1"
       inkscape:vp_y="0 : 1000 : 0"
       inkscape:vp_x="0 : 0.5 : 1"
       sodipodi:type="inkscape:persp3d" />
    <inkscape:perspective
       id="perspective3026"
       inkscape:persp3d-origin="0.5 : 0.33333333 : 1"
       inkscape:vp_z="1 : 0.5 : 1"
       inkscape:vp_y="0 : 1000 : 0"
       inkscape:vp_x="0 : 0.5 : 1"
       sodipodi:type="inkscape:persp3d" />
    <inkscape:perspective
       id="perspective3097"
       inkscape:persp3d-origin="0.5 : 0.33333333 : 1"
       inkscape:vp_z="1 : 0.5 : 1"
       inkscape:vp_y="0 : 1000 : 0"
       inkscape:vp_x="0 : 0.5 : 1"
       sodipodi:type="inkscape:persp3d" />
    <inkscape:perspective
       id="perspective3168"
       inkscape:persp3d-origin="0.5 : 0.33333333 : 1"
       inkscape:vp_z="1 : 0.5 : 1"
       inkscape:vp_y="0 : 1000 : 0"
       inkscape:vp_x="0 : 0.5 : 1"
       sodipodi:type="inkscape:persp3d" />
    <inkscape:perspective
       id="perspective3357"
       inkscape:persp3d-origin="0.5 : 0.33333333 : 1"
       inkscape:vp_z="1 : 0.5 : 1"
       inkscape:vp_y="0 : 1000 : 0"
       inkscape:vp_x="0 : 0.5 : 1"
       sodipodi:type="inkscape:persp3d" />
    <inkscape:perspective
       id="perspective3772"
       inkscape:persp3d-origin="0.5 : 0.33333333 : 1"
       inkscape:vp_z="1 : 0.5 : 1"
       inkscape:vp_y="0 : 1000 : 0"
       inkscape:vp_x="0 : 0.5 : 1"
       sodipodi:type="inkscape:persp3d" />
    <inkscape:perspective
       id="perspective2888"
       inkscape:persp3d-origin="0.5 : 0.33333333 : 1"
       inkscape:vp_z="1 : 0.5 : 1"
       inkscape:vp_y="0 : 1000 : 0"
       inkscape:vp_x="0 : 0.5 : 1"
       sodipodi:type="inkscape:persp3d" />
    <inkscape:perspective
       id="perspective3096"
       inkscape:persp3d-origin="0.5 : 0.33333333 : 1"
       inkscape:vp_z="1 : 0.5 : 1"
       inkscape:vp_y="0 : 1000 : 0"
       inkscape:vp_x="0 : 0.5 : 1"
       sodipodi:type="inkscape:persp3d" />
    <inkscape:perspective
       id="perspective3110"
       inkscape:persp3d-origin="0.5 : 0.33333333 : 1"
       inkscape:vp_z="1 : 0.5 : 1"
       inkscape:vp_y="0 : 1000 : 0"
       inkscape:vp_x="0 : 0.5 : 1"
       sodipodi:type="inkscape:persp3d" />
  </defs>
  <sodipodi:namedview
     id="base"
     pagecolor="#ffffff"
     bordercolor="#666666"
     borderopacity="1.0"
     inkscape:pageopacity="0.0"
     inkscape:pageshadow="2"
     inkscape:zoom="3.6088466"
     inkscape:cx="148.38536"
     inkscape:cy="56.886248"
     inkscape:document-units="px"
     inkscape:current-layer="layer1"
     showgrid="false"
     inkscape:window-width="1440"
     inkscape:window-height="852"
     inkscape:window-x="-4"
     inkscape:window-y="25"
     inkscape:window-maximized="1"
     showguides="true"
     inkscape:guide-bbox="true" />
  <metadata
     id="metadata7">
    <rdf:RDF>
      <cc:Work
         rdf:about="">
        <dc:format>image/svg+xml</dc:format>
        <dc:type
           rdf:resource="http://purl.org/dc/dcmitype/StillImage" />
        <dc:title></dc:title>
      </cc:Work>
    </rdf:RDF>
  </metadata>
  <g
     inkscape:label="Layer 1"
     inkscape:groupmode="layer"
     id="layer1"
     transform="translate(887.55109,-601.74481)">
    <image
       y="601.85864"
       x="-724.66437"
       id="image3112"
       height="99.999779"
       width="133.884"
       xlink:href="file:///home/jack/Current%20Documents/DRS/Bell%20Jar/Curing%20Images/2nd%20Set/Micrographs/Picture5-scale.jpg" />
    <rect
       ry="4.280376"
       rx="5.7072277"
       y="685.98932"
       x="-767.11273"
       height="13.629026"
       width="18.8403"
       id="rect3734-2"
       style="fill:#000000;fill-opacity:1;stroke:#000000;stroke-opacity:1" />
    <text
       xml:space="preserve"
       style="font-size:72px;font-style:normal;font-weight:normal;fill:#000000;fill-opacity:1;stroke:none;font-family:Bitstream Vera Sans"
       x="-887.96124"
       y="595.02972"
       id="text3039"
       inkscape:export-filename="/home/jack/Documents/School/Grad/Thesis/Figures/Micrographs.png"
       inkscape:export-xdpi="300"
       inkscape:export-ydpi="300"><tspan
         sodipodi:role="line"
         id="tspan3041"
         x="-887.96124"
         y="595.02972"
         style="font-size:10px;font-style:normal;font-variant:normal;font-weight:normal;font-stretch:normal;text-align:start;line-height:125%;writing-mode:lr-tb;text-anchor:start;font-family:Times New Roman;-inkscape-font-specification:'Times New Roman,'">(a)</tspan></text>
    <text
       id="text3043"
       y="595.69611"
       x="-736.9649"
       style="font-size:72px;font-style:normal;font-weight:normal;fill:#000000;fill-opacity:1;stroke:none;font-family:Bitstream Vera Sans"
       xml:space="preserve"
       inkscape:export-xdpi="300"
       inkscape:export-ydpi="300"
       inkscape:export-filename="/home/jack/Current Documents/iTherm 2010/Draft/Figures/Threshold-Example.png"><tspan
         style="font-size:10px;font-style:normal;font-variant:normal;font-weight:normal;font-stretch:normal;text-align:start;line-height:125%;writing-mode:lr-tb;text-anchor:start;font-family:Times New Roman;-inkscape-font-specification:'Times New Roman,'"
         y="595.69611"
         x="-736.9649"
         id="tspan3045"
         sodipodi:role="line">(b)</tspan></text>
    <g
       id="g3030"
       transform="translate(18.481581,61.470528)">
      <path
         sodipodi:nodetypes="cc"
         id="path3746-0"
         d="m -770.62728,634.36938 0,1.39889"
         style="fill:none;stroke:#ffffff;stroke-width:0.30000001;stroke-linecap:butt;stroke-linejoin:miter;stroke-miterlimit:4;stroke-opacity:1;stroke-dasharray:none" />
      <path
         style="fill:none;stroke:#ffffff;stroke-width:0.30000001;stroke-linecap:butt;stroke-linejoin:miter;stroke-miterlimit:4;stroke-opacity:1;stroke-dasharray:none"
         d="m -781.72104,634.36938 0,1.39889"
         id="path3625"
         sodipodi:nodetypes="cc" />
      <path
         sodipodi:nodetypes="cc"
         id="path2847-2"
         d="m -781.72104,635.05327 11.09376,0"
         style="fill:none;stroke:#f8f8f8;stroke-width:0.30000001;stroke-linecap:butt;stroke-linejoin:miter;stroke-miterlimit:4;stroke-opacity:1;stroke-dasharray:none" />
      <g
         style="fill:#ffffff;fill-opacity:1"
         transform="matrix(0.75,0,0,0.75,-952.76728,530.72537)"
         ns0:text="1 mm"
         ns0:preamble="/home/jack/.inkscape/extensions/textext/preamble.tex"
         id="g3911">
        <defs
           id="defs3913">
          <g
             id="g3915">
            <symbol
               style="overflow:visible"
               overflow="visible"
               id="textext-ff18ac51-0">
              <path
                 style="stroke:none"
                 d=""
                 id="path3918" />
            </symbol>
            <symbol
               style="overflow:visible"
               overflow="visible"
               id="textext-ff18ac51-1">
              <path
                 style="stroke:none"
                 d="m 2.90625,-6.734375 -1.796875,0.90625 0,0.140625 C 1.21875,-5.734375 1.328125,-5.78125 1.375,-5.796875 1.5625,-5.875 1.71875,-5.90625 1.828125,-5.90625 2.03125,-5.90625 2.125,-5.765625 2.125,-5.4375 l 0,4.515625 c 0,0.328125 -0.078125,0.546875 -0.234375,0.640625 -0.15625,0.09375 -0.296875,0.125 -0.71875,0.125 l 0,0.15625 2.75,0 0,-0.15625 c -0.78125,0 -0.9375,-0.109375 -0.9375,-0.578125 l 0,-5.984375 -0.078125,-0.015625 z m 0,0"
                 id="path3921" />
            </symbol>
            <symbol
               style="overflow:visible"
               overflow="visible"
               id="textext-ff18ac51-2">
              <path
                 style="stroke:none"
                 d="M 0.1875,-3.96875 C 0.3125,-4 0.40625,-4 0.515625,-4 c 0.25,0 0.34375,0.15625 0.34375,0.625 l 0,2.53125 c 0,0.53125 -0.140625,0.6875 -0.703125,0.6875 l 0,0.15625 2.21875,0 0,-0.15625 C 1.84375,-0.171875 1.6875,-0.28125 1.6875,-0.671875 l 0,-2.8125 c 0,-0.015625 0.09375,-0.109375 0.15625,-0.1875 0.25,-0.21875 0.671875,-0.390625 1.03125,-0.390625 0.4375,0 0.65625,0.34375 0.65625,1.046875 l 0,2.15625 c 0,0.5625 -0.109375,0.671875 -0.6875,0.703125 l 0,0.15625 2.234375,0 0,-0.15625 c -0.5625,0 -0.71875,-0.171875 -0.71875,-0.796875 l 0,-2.5 C 4.671875,-3.890625 5,-4.0625 5.453125,-4.0625 c 0.5625,0 0.75,0.265625 0.75,1.09375 l 0,2.09375 c 0,0.578125 -0.078125,0.65625 -0.65625,0.71875 l 0,0.15625 2.171875,0 0,-0.15625 -0.25,-0.015625 C 7.171875,-0.1875 7.03125,-0.375 7.03125,-0.75 l 0,-2.0625 c 0,-1.171875 -0.375,-1.765625 -1.15625,-1.765625 -0.578125,0 -1.078125,0.25 -1.625,0.828125 -0.171875,-0.5625 -0.515625,-0.828125 -1.046875,-0.828125 -0.4375,0 -0.71875,0.125 -1.546875,0.765625 l 0,-0.75 -0.078125,-0.015625 c -0.5,0.1875 -0.84375,0.296875 -1.390625,0.4375 l 0,0.171875 z m 0,0"
                 id="path3924" />
            </symbol>
          </g>
        </defs>
        <g
           style="fill:#ffffff;fill-opacity:1"
           id="textext-ff18ac51-3">
          <g
             style="fill:#ffffff;fill-opacity:1"
             id="g3927">
            <use
               style="fill:#ffffff;fill-opacity:1"
               height="104.86572"
               width="317.70236"
               xlink:href="#textext-ff18ac51-1"
               x="223.43201"
               y="134.765"
               id="use3929" />
          </g>
          <g
             style="fill:#ffffff;fill-opacity:1"
             id="g3931">
            <use
               style="fill:#ffffff;fill-opacity:1"
               height="104.86572"
               width="317.70236"
               xlink:href="#textext-ff18ac51-2"
               x="230.90395"
               y="134.765"
               id="use3933" />
            <use
               style="fill:#ffffff;fill-opacity:1"
               height="104.86572"
               width="317.70236"
               xlink:href="#textext-ff18ac51-2"
               x="238.65485"
               y="134.765"
               id="use3935" />
          </g>
        </g>
      </g>
    </g>
    <g
       id="g3964">
      <rect
         ry="4.280376"
         rx="5.7072277"
         y="685.36902"
         x="-617.81732"
         height="13.629026"
         width="22.33164"
         id="rect4118"
         style="fill:#000000;fill-opacity:1;stroke:#000000;stroke-opacity:1" />
      <g
         id="g3901">
        <g
           id="g3896">
          <path
             style="fill:none;stroke:#ffffff;stroke-width:0.30000001;stroke-linecap:butt;stroke-linejoin:miter;stroke-miterlimit:4;stroke-opacity:1;stroke-dasharray:none"
             d="m -597.35141,694.59936 0,1.39889"
             id="path4122"
             sodipodi:nodetypes="cc" />
          <path
             sodipodi:nodetypes="cc"
             id="path4124"
             d="m -615.95165,694.59936 0,1.39889"
             style="fill:none;stroke:#ffffff;stroke-width:0.30000001;stroke-linecap:butt;stroke-linejoin:miter;stroke-miterlimit:4;stroke-opacity:1;stroke-dasharray:none" />
          <path
             style="fill:none;stroke:#f8f8f8;stroke-width:0.30000001;stroke-linecap:butt;stroke-linejoin:miter;stroke-miterlimit:4;stroke-opacity:1;stroke-dasharray:none"
             d="m -615.95165,695.29881 18.60024,0"
             id="path4126"
             sodipodi:nodetypes="cc" />
        </g>
        <g
           style="fill:#ffffff;fill-opacity:1"
           transform="matrix(0.75,0,0,0.75,-783.24465,592.1959)"
           ns0:text="1 mm"
           ns0:preamble="/home/jack/.inkscape/extensions/textext/preamble.tex"
           id="g4128">
          <defs
             id="defs4130">
            <g
               id="g4132">
              <symbol
                 style="overflow:visible"
                 overflow="visible"
                 id="symbol4134">
                <path
                   style="stroke:none"
                   d=""
                   id="path4136" />
              </symbol>
              <symbol
                 style="overflow:visible"
                 overflow="visible"
                 id="symbol4138">
                <path
                   style="stroke:none"
                   d="m 2.90625,-6.734375 -1.796875,0.90625 0,0.140625 C 1.21875,-5.734375 1.328125,-5.78125 1.375,-5.796875 1.5625,-5.875 1.71875,-5.90625 1.828125,-5.90625 2.03125,-5.90625 2.125,-5.765625 2.125,-5.4375 l 0,4.515625 c 0,0.328125 -0.078125,0.546875 -0.234375,0.640625 -0.15625,0.09375 -0.296875,0.125 -0.71875,0.125 l 0,0.15625 2.75,0 0,-0.15625 c -0.78125,0 -0.9375,-0.109375 -0.9375,-0.578125 l 0,-5.984375 -0.078125,-0.015625 z m 0,0"
                   id="path4140" />
              </symbol>
              <symbol
                 style="overflow:visible"
                 overflow="visible"
                 id="symbol4142">
                <path
                   style="stroke:none"
                   d="M 0.1875,-3.96875 C 0.3125,-4 0.40625,-4 0.515625,-4 c 0.25,0 0.34375,0.15625 0.34375,0.625 l 0,2.53125 c 0,0.53125 -0.140625,0.6875 -0.703125,0.6875 l 0,0.15625 2.21875,0 0,-0.15625 C 1.84375,-0.171875 1.6875,-0.28125 1.6875,-0.671875 l 0,-2.8125 c 0,-0.015625 0.09375,-0.109375 0.15625,-0.1875 0.25,-0.21875 0.671875,-0.390625 1.03125,-0.390625 0.4375,0 0.65625,0.34375 0.65625,1.046875 l 0,2.15625 c 0,0.5625 -0.109375,0.671875 -0.6875,0.703125 l 0,0.15625 2.234375,0 0,-0.15625 c -0.5625,0 -0.71875,-0.171875 -0.71875,-0.796875 l 0,-2.5 C 4.671875,-3.890625 5,-4.0625 5.453125,-4.0625 c 0.5625,0 0.75,0.265625 0.75,1.09375 l 0,2.09375 c 0,0.578125 -0.078125,0.65625 -0.65625,0.71875 l 0,0.15625 2.171875,0 0,-0.15625 -0.25,-0.015625 C 7.171875,-0.1875 7.03125,-0.375 7.03125,-0.75 l 0,-2.0625 c 0,-1.171875 -0.375,-1.765625 -1.15625,-1.765625 -0.578125,0 -1.078125,0.25 -1.625,0.828125 -0.171875,-0.5625 -0.515625,-0.828125 -1.046875,-0.828125 -0.4375,0 -0.71875,0.125 -1.546875,0.765625 l 0,-0.75 -0.078125,-0.015625 c -0.5,0.1875 -0.84375,0.296875 -1.390625,0.4375 l 0,0.171875 z m 0,0"
                   id="path4144" />
              </symbol>
            </g>
          </defs>
          <g
             style="fill:#ffffff;fill-opacity:1"
             id="g4146">
            <g
               style="fill:#ffffff;fill-opacity:1"
               id="g4148">
              <use
                 style="fill:#ffffff;fill-opacity:1"
                 height="104.86572"
                 width="317.70236"
                 xlink:href="#textext-ff18ac51-1"
                 x="223.43201"
                 y="134.765"
                 id="use4150" />
            </g>
            <g
               style="fill:#ffffff;fill-opacity:1"
               id="g4152">
              <use
                 style="fill:#ffffff;fill-opacity:1"
                 height="104.86572"
                 width="317.70236"
                 xlink:href="#textext-ff18ac51-2"
                 x="230.90395"
                 y="134.765"
                 id="use4154" />
              <use
                 style="fill:#ffffff;fill-opacity:1"
                 height="104.86572"
                 width="317.70236"
                 xlink:href="#textext-ff18ac51-2"
                 x="238.65485"
                 y="134.765"
                 id="use4156" />
            </g>
          </g>
        </g>
      </g>
    </g>
    <image
       y="601.74481"
       x="-875.4173"
       id="image2886"
       height="100"
       width="133.88429"
       xlink:href="file:///home/jack/Current%20Documents/DRS/Bell%20Jar/Curing%20Images/2nd%20Set/Micrographs/Picture1.jpg" />
    <rect
       ry="4.280376"
       rx="5.7072277"
       y="685.36902"
       x="-768.83508"
       height="13.629026"
       width="22.33164"
       id="rect3989"
       style="fill:#000000;fill-opacity:1;stroke:#000000;stroke-opacity:1" />
    <g
       id="g4091">
      <g
         transform="translate(-4.0007982,0)"
         id="g4086">
        <path
           style="fill:none;stroke:#ffffff;stroke-width:0.30000001;stroke-linecap:butt;stroke-linejoin:miter;stroke-miterlimit:4;stroke-opacity:1;stroke-dasharray:none"
           d="m -748.08994,694.59936 0,1.39889"
           id="path3995"
           sodipodi:nodetypes="cc" />
        <path
           sodipodi:nodetypes="cc"
           id="path3997"
           d="m -759.24709,694.59936 0,1.39889"
           style="fill:none;stroke:#ffffff;stroke-width:0.30000001;stroke-linecap:butt;stroke-linejoin:miter;stroke-miterlimit:4;stroke-opacity:1;stroke-dasharray:none" />
        <path
           style="fill:none;stroke:#f8f8f8;stroke-width:0.30000001;stroke-linecap:butt;stroke-linejoin:miter;stroke-miterlimit:4;stroke-opacity:1;stroke-dasharray:none"
           d="m -759.24709,695.29881 11.15715,0"
           id="path3999"
           sodipodi:nodetypes="cc" />
      </g>
      <g
         style="fill:#ffffff;fill-opacity:1"
         transform="matrix(0.75,0,0,0.75,-934.26243,592.1959)"
         ns0:text="1 mm"
         ns0:preamble="/home/jack/.inkscape/extensions/textext/preamble.tex"
         id="g4001">
        <defs
           id="defs4003">
          <g
             id="g4005">
            <symbol
               style="overflow:visible"
               overflow="visible"
               id="symbol4007">
              <path
                 style="stroke:none"
                 d=""
                 id="path4009" />
            </symbol>
            <symbol
               style="overflow:visible"
               overflow="visible"
               id="symbol4011">
              <path
                 style="stroke:none"
                 d="m 2.90625,-6.734375 -1.796875,0.90625 0,0.140625 C 1.21875,-5.734375 1.328125,-5.78125 1.375,-5.796875 1.5625,-5.875 1.71875,-5.90625 1.828125,-5.90625 2.03125,-5.90625 2.125,-5.765625 2.125,-5.4375 l 0,4.515625 c 0,0.328125 -0.078125,0.546875 -0.234375,0.640625 -0.15625,0.09375 -0.296875,0.125 -0.71875,0.125 l 0,0.15625 2.75,0 0,-0.15625 c -0.78125,0 -0.9375,-0.109375 -0.9375,-0.578125 l 0,-5.984375 -0.078125,-0.015625 z m 0,0"
                 id="path4013" />
            </symbol>
            <symbol
               style="overflow:visible"
               overflow="visible"
               id="symbol4015">
              <path
                 style="stroke:none"
                 d="M 0.1875,-3.96875 C 0.3125,-4 0.40625,-4 0.515625,-4 c 0.25,0 0.34375,0.15625 0.34375,0.625 l 0,2.53125 c 0,0.53125 -0.140625,0.6875 -0.703125,0.6875 l 0,0.15625 2.21875,0 0,-0.15625 C 1.84375,-0.171875 1.6875,-0.28125 1.6875,-0.671875 l 0,-2.8125 c 0,-0.015625 0.09375,-0.109375 0.15625,-0.1875 0.25,-0.21875 0.671875,-0.390625 1.03125,-0.390625 0.4375,0 0.65625,0.34375 0.65625,1.046875 l 0,2.15625 c 0,0.5625 -0.109375,0.671875 -0.6875,0.703125 l 0,0.15625 2.234375,0 0,-0.15625 c -0.5625,0 -0.71875,-0.171875 -0.71875,-0.796875 l 0,-2.5 C 4.671875,-3.890625 5,-4.0625 5.453125,-4.0625 c 0.5625,0 0.75,0.265625 0.75,1.09375 l 0,2.09375 c 0,0.578125 -0.078125,0.65625 -0.65625,0.71875 l 0,0.15625 2.171875,0 0,-0.15625 -0.25,-0.015625 C 7.171875,-0.1875 7.03125,-0.375 7.03125,-0.75 l 0,-2.0625 c 0,-1.171875 -0.375,-1.765625 -1.15625,-1.765625 -0.578125,0 -1.078125,0.25 -1.625,0.828125 -0.171875,-0.5625 -0.515625,-0.828125 -1.046875,-0.828125 -0.4375,0 -0.71875,0.125 -1.546875,0.765625 l 0,-0.75 -0.078125,-0.015625 c -0.5,0.1875 -0.84375,0.296875 -1.390625,0.4375 l 0,0.171875 z m 0,0"
                 id="path4017" />
            </symbol>
          </g>
        </defs>
        <g
           style="fill:#ffffff;fill-opacity:1"
           id="g4019">
          <g
             style="fill:#ffffff;fill-opacity:1"
             id="g4021">
            <use
               style="fill:#ffffff;fill-opacity:1"
               height="104.86572"
               width="317.70236"
               xlink:href="#textext-ff18ac51-1"
               x="223.43201"
               y="134.765"
               id="use4023" />
          </g>
          <g
             style="fill:#ffffff;fill-opacity:1"
             id="g4025">
            <use
               style="fill:#ffffff;fill-opacity:1"
               height="104.86572"
               width="317.70236"
               xlink:href="#textext-ff18ac51-2"
               x="230.90395"
               y="134.765"
               id="use4027" />
            <use
               style="fill:#ffffff;fill-opacity:1"
               height="104.86572"
               width="317.70236"
               xlink:href="#textext-ff18ac51-2"
               x="238.65485"
               y="134.765"
               id="use4029" />
          </g>
        </g>
      </g>
    </g>
  </g>
</svg>
