<?xml version="1.0" encoding="UTF-8" standalone="no"?>
<!-- Created with Inkscape (http://www.inkscape.org/) -->

<svg
   xmlns:ns0="http://www.iki.fi/pav/software/textext/"
   xmlns:dc="http://purl.org/dc/elements/1.1/"
   xmlns:cc="http://creativecommons.org/ns#"
   xmlns:rdf="http://www.w3.org/1999/02/22-rdf-syntax-ns#"
   xmlns:svg="http://www.w3.org/2000/svg"
   xmlns="http://www.w3.org/2000/svg"
   xmlns:xlink="http://www.w3.org/1999/xlink"
   xmlns:sodipodi="http://sodipodi.sourceforge.net/DTD/sodipodi-0.dtd"
   xmlns:inkscape="http://www.inkscape.org/namespaces/inkscape"
   width="317.70236"
   height="104.86572"
   id="svg2"
   version="1.1"
   inkscape:version="0.47 r22583"
   inkscape:export-filename="/home/jack/Documents/School/Grad/Thesis/Figures/Threshold-Example.png"
   inkscape:export-xdpi="300"
   inkscape:export-ydpi="300"
   sodipodi:docname="Threshold-Example.svg">
  <sodipodi:namedview
     id="base"
     pagecolor="#ffffff"
     bordercolor="#666666"
     borderopacity="1.0"
     inkscape:pageopacity="0.0"
     inkscape:pageshadow="2"
     inkscape:zoom="4.2051938"
     inkscape:cx="158.85118"
     inkscape:cy="52.432861"
     inkscape:document-units="px"
     inkscape:current-layer="layer1"
     showgrid="false"
     inkscape:window-width="1440"
     inkscape:window-height="852"
     inkscape:window-x="-4"
     inkscape:window-y="25"
     inkscape:window-maximized="1" />
  <defs
     id="defs4">
    <inkscape:perspective
       sodipodi:type="inkscape:persp3d"
       inkscape:vp_x="0 : 526.18109 : 1"
       inkscape:vp_y="0 : 1000 : 0"
       inkscape:vp_z="744.09448 : 526.18109 : 1"
       inkscape:persp3d-origin="372.04724 : 350.78739 : 1"
       id="perspective10" />
    <inkscape:perspective
       id="perspective2962"
       inkscape:persp3d-origin="0.5 : 0.33333333 : 1"
       inkscape:vp_z="1 : 0.5 : 1"
       inkscape:vp_y="0 : 1000 : 0"
       inkscape:vp_x="0 : 0.5 : 1"
       sodipodi:type="inkscape:persp3d" />
    <inkscape:perspective
       id="perspective3033"
       inkscape:persp3d-origin="0.5 : 0.33333333 : 1"
       inkscape:vp_z="1 : 0.5 : 1"
       inkscape:vp_y="0 : 1000 : 0"
       inkscape:vp_x="0 : 0.5 : 1"
       sodipodi:type="inkscape:persp3d" />
    <inkscape:perspective
       id="perspective3171"
       inkscape:persp3d-origin="0.5 : 0.33333333 : 1"
       inkscape:vp_z="1 : 0.5 : 1"
       inkscape:vp_y="0 : 1000 : 0"
       inkscape:vp_x="0 : 0.5 : 1"
       sodipodi:type="inkscape:persp3d" />
    <inkscape:perspective
       id="perspective3329"
       inkscape:persp3d-origin="0.5 : 0.33333333 : 1"
       inkscape:vp_z="1 : 0.5 : 1"
       inkscape:vp_y="0 : 1000 : 0"
       inkscape:vp_x="0 : 0.5 : 1"
       sodipodi:type="inkscape:persp3d" />
    <inkscape:perspective
       id="perspective2974"
       inkscape:persp3d-origin="0.5 : 0.33333333 : 1"
       inkscape:vp_z="1 : 0.5 : 1"
       inkscape:vp_y="0 : 1000 : 0"
       inkscape:vp_x="0 : 0.5 : 1"
       sodipodi:type="inkscape:persp3d" />
    <inkscape:perspective
       id="perspective2869"
       inkscape:persp3d-origin="0.5 : 0.33333333 : 1"
       inkscape:vp_z="1 : 0.5 : 1"
       inkscape:vp_y="0 : 1000 : 0"
       inkscape:vp_x="0 : 0.5 : 1"
       sodipodi:type="inkscape:persp3d" />
  </defs>
  <metadata
     id="metadata7">
    <rdf:RDF>
      <cc:Work
         rdf:about="">
        <dc:format>image/svg+xml</dc:format>
        <dc:type
           rdf:resource="http://purl.org/dc/dcmitype/StillImage" />
        <dc:title></dc:title>
      </cc:Work>
    </rdf:RDF>
  </metadata>
  <g
     inkscape:label="Layer 1"
     inkscape:groupmode="layer"
     id="layer1"
     transform="translate(-65.66407,-451.31778)">
    <image
       y="451.31778"
       x="243.36642"
       id="image2976"
       height="104.86487"
       width="140"
       xlink:href="file:///home/jack/Current%20Documents/iTherm%202010/Final/Figures/LocationC3-Threshold.bmp" />
    <text
       xml:space="preserve"
       style="font-size:72px;font-style:normal;font-weight:normal;fill:#000000;fill-opacity:1;stroke:none;font-family:Bitstream Vera Sans"
       x="65.253914"
       y="445.41986"
       id="text3039"
       inkscape:export-filename="/home/jack/Current Documents/iTherm 2010/Draft/Figures/Threshold-Example.png"
       inkscape:export-xdpi="300"
       inkscape:export-ydpi="300"><tspan
         sodipodi:role="line"
         id="tspan3041"
         x="65.253914"
         y="445.41986"
         style="font-size:10px;font-style:normal;font-variant:normal;font-weight:normal;font-stretch:normal;text-align:start;line-height:125%;writing-mode:lr-tb;text-anchor:start;font-family:Times New Roman;-inkscape-font-specification:'Times New Roman,'">(a)</tspan></text>
    <text
       id="text3043"
       y="444.46866"
       x="229.64674"
       style="font-size:72px;font-style:normal;font-weight:normal;fill:#000000;fill-opacity:1;stroke:none;font-family:Bitstream Vera Sans"
       xml:space="preserve"
       inkscape:export-xdpi="300"
       inkscape:export-ydpi="300"
       inkscape:export-filename="/home/jack/Current Documents/iTherm 2010/Draft/Figures/Threshold-Example.png"><tspan
         style="font-size:10px;font-style:normal;font-variant:normal;font-weight:normal;font-stretch:normal;text-align:start;line-height:125%;writing-mode:lr-tb;text-anchor:start;font-family:Times New Roman;-inkscape-font-specification:'Times New Roman,'"
         y="444.46866"
         x="229.64674"
         id="tspan3045"
         sodipodi:role="line">(b)</tspan></text>
    <image
       y="451.31778"
       x="78.499756"
       id="image3331"
       height="104.5679"
       width="140"
       xlink:href="file:///home/jack/Current%20Documents/iTherm%202010/Draft/Figures/LocationC3.tif" />
    <g
       id="g4066"
       transform="translate(-0.22330488,-0.03945686)">
      <rect
         style="fill:#000000;fill-opacity:1;stroke:#000000;stroke-opacity:1"
         id="rect3734"
         width="18.8403"
         height="13.629026"
         x="196.38737"
         y="539.34393"
         rx="5.7072277"
         ry="4.280376" />
      <g
         transform="translate(0,0.86703216)"
         id="g4046">
        <path
           style="fill:none;stroke:#ffffff;stroke-width:0.30000001;stroke-linecap:butt;stroke-linejoin:miter;stroke-miterlimit:4;stroke-opacity:1;stroke-dasharray:none"
           d="m 211.65125,548.32749 0,1.39889"
           id="path3746"
           sodipodi:nodetypes="cc" />
        <path
           sodipodi:nodetypes="cc"
           id="path3625"
           d="m 199.96379,548.32749 0,1.39889"
           style="fill:none;stroke:#ffffff;stroke-width:0.30000001;stroke-linecap:butt;stroke-linejoin:miter;stroke-miterlimit:4;stroke-opacity:1;stroke-dasharray:none" />
        <path
           style="fill:none;stroke:#f8f8f8;stroke-width:0.30000001;stroke-linecap:butt;stroke-linejoin:miter;stroke-miterlimit:4;stroke-opacity:1;stroke-dasharray:none"
           d="m 199.96379,549.01138 11.68746,0"
           id="path2847"
           sodipodi:nodetypes="cc" />
        <g
           id="g3911"
           ns0:preamble="/home/jack/.inkscape/extensions/textext/preamble.tex"
           ns0:text="1 mm"
           transform="matrix(0.75,0,0,0.75,29.214403,444.68348)"
           style="fill:#ffffff;fill-opacity:1">
          <defs
             id="defs3913">
            <g
               id="g3915">
              <symbol
                 id="textext-ff18ac51-0"
                 overflow="visible"
                 style="overflow:visible">
                <path
                   id="path3918"
                   d=""
                   style="stroke:none" />
              </symbol>
              <symbol
                 id="textext-ff18ac51-1"
                 overflow="visible"
                 style="overflow:visible">
                <path
                   id="path3921"
                   d="m 2.90625,-6.734375 -1.796875,0.90625 0,0.140625 C 1.21875,-5.734375 1.328125,-5.78125 1.375,-5.796875 1.5625,-5.875 1.71875,-5.90625 1.828125,-5.90625 2.03125,-5.90625 2.125,-5.765625 2.125,-5.4375 l 0,4.515625 c 0,0.328125 -0.078125,0.546875 -0.234375,0.640625 -0.15625,0.09375 -0.296875,0.125 -0.71875,0.125 l 0,0.15625 2.75,0 0,-0.15625 c -0.78125,0 -0.9375,-0.109375 -0.9375,-0.578125 l 0,-5.984375 -0.078125,-0.015625 z m 0,0"
                   style="stroke:none" />
              </symbol>
              <symbol
                 id="textext-ff18ac51-2"
                 overflow="visible"
                 style="overflow:visible">
                <path
                   id="path3924"
                   d="M 0.1875,-3.96875 C 0.3125,-4 0.40625,-4 0.515625,-4 c 0.25,0 0.34375,0.15625 0.34375,0.625 l 0,2.53125 c 0,0.53125 -0.140625,0.6875 -0.703125,0.6875 l 0,0.15625 2.21875,0 0,-0.15625 C 1.84375,-0.171875 1.6875,-0.28125 1.6875,-0.671875 l 0,-2.8125 c 0,-0.015625 0.09375,-0.109375 0.15625,-0.1875 0.25,-0.21875 0.671875,-0.390625 1.03125,-0.390625 0.4375,0 0.65625,0.34375 0.65625,1.046875 l 0,2.15625 c 0,0.5625 -0.109375,0.671875 -0.6875,0.703125 l 0,0.15625 2.234375,0 0,-0.15625 c -0.5625,0 -0.71875,-0.171875 -0.71875,-0.796875 l 0,-2.5 C 4.671875,-3.890625 5,-4.0625 5.453125,-4.0625 c 0.5625,0 0.75,0.265625 0.75,1.09375 l 0,2.09375 c 0,0.578125 -0.078125,0.65625 -0.65625,0.71875 l 0,0.15625 2.171875,0 0,-0.15625 -0.25,-0.015625 C 7.171875,-0.1875 7.03125,-0.375 7.03125,-0.75 l 0,-2.0625 c 0,-1.171875 -0.375,-1.765625 -1.15625,-1.765625 -0.578125,0 -1.078125,0.25 -1.625,0.828125 -0.171875,-0.5625 -0.515625,-0.828125 -1.046875,-0.828125 -0.4375,0 -0.71875,0.125 -1.546875,0.765625 l 0,-0.75 -0.078125,-0.015625 c -0.5,0.1875 -0.84375,0.296875 -1.390625,0.4375 l 0,0.171875 z m 0,0"
                   style="stroke:none" />
              </symbol>
            </g>
          </defs>
          <g
             id="textext-ff18ac51-3"
             style="fill:#ffffff;fill-opacity:1">
            <g
               id="g3927"
               style="fill:#ffffff;fill-opacity:1">
              <use
                 id="use3929"
                 y="134.765"
                 x="223.43201"
                 xlink:href="#textext-ff18ac51-1"
                 width="317.70236"
                 height="104.86572"
                 style="fill:#ffffff;fill-opacity:1" />
            </g>
            <g
               id="g3931"
               style="fill:#ffffff;fill-opacity:1">
              <use
                 id="use3933"
                 y="134.765"
                 x="230.90395"
                 xlink:href="#textext-ff18ac51-2"
                 width="317.70236"
                 height="104.86572"
                 style="fill:#ffffff;fill-opacity:1" />
              <use
                 id="use3935"
                 y="134.765"
                 x="238.65485"
                 xlink:href="#textext-ff18ac51-2"
                 width="317.70236"
                 height="104.86572"
                 style="fill:#ffffff;fill-opacity:1" />
            </g>
          </g>
        </g>
      </g>
    </g>
    <g
       id="g4116"
       transform="translate(164.7767,-0.03945686)">
      <rect
         ry="4.280376"
         rx="5.7072277"
         y="539.34393"
         x="196.38737"
         height="13.629026"
         width="18.8403"
         id="rect4118"
         style="fill:#000000;fill-opacity:1;stroke:#000000;stroke-opacity:1" />
      <g
         id="g4120"
         transform="translate(0,0.86703216)">
        <path
           sodipodi:nodetypes="cc"
           id="path4122"
           d="m 211.65125,548.32749 0,1.39889"
           style="fill:none;stroke:#ffffff;stroke-width:0.30000001;stroke-linecap:butt;stroke-linejoin:miter;stroke-miterlimit:4;stroke-opacity:1;stroke-dasharray:none" />
        <path
           style="fill:none;stroke:#ffffff;stroke-width:0.30000001;stroke-linecap:butt;stroke-linejoin:miter;stroke-miterlimit:4;stroke-opacity:1;stroke-dasharray:none"
           d="m 199.96379,548.32749 0,1.39889"
           id="path4124"
           sodipodi:nodetypes="cc" />
        <path
           sodipodi:nodetypes="cc"
           id="path4126"
           d="m 199.96379,549.01138 11.68746,0"
           style="fill:none;stroke:#f8f8f8;stroke-width:0.30000001;stroke-linecap:butt;stroke-linejoin:miter;stroke-miterlimit:4;stroke-opacity:1;stroke-dasharray:none" />
        <g
           style="fill:#ffffff;fill-opacity:1"
           transform="matrix(0.75,0,0,0.75,29.214403,444.68348)"
           ns0:text="1 mm"
           ns0:preamble="/home/jack/.inkscape/extensions/textext/preamble.tex"
           id="g4128">
          <defs
             id="defs4130">
            <g
               id="g4132">
              <symbol
                 style="overflow:visible"
                 overflow="visible"
                 id="symbol4134">
                <path
                   style="stroke:none"
                   d=""
                   id="path4136" />
              </symbol>
              <symbol
                 style="overflow:visible"
                 overflow="visible"
                 id="symbol4138">
                <path
                   style="stroke:none"
                   d="m 2.90625,-6.734375 -1.796875,0.90625 0,0.140625 C 1.21875,-5.734375 1.328125,-5.78125 1.375,-5.796875 1.5625,-5.875 1.71875,-5.90625 1.828125,-5.90625 2.03125,-5.90625 2.125,-5.765625 2.125,-5.4375 l 0,4.515625 c 0,0.328125 -0.078125,0.546875 -0.234375,0.640625 -0.15625,0.09375 -0.296875,0.125 -0.71875,0.125 l 0,0.15625 2.75,0 0,-0.15625 c -0.78125,0 -0.9375,-0.109375 -0.9375,-0.578125 l 0,-5.984375 -0.078125,-0.015625 z m 0,0"
                   id="path4140" />
              </symbol>
              <symbol
                 style="overflow:visible"
                 overflow="visible"
                 id="symbol4142">
                <path
                   style="stroke:none"
                   d="M 0.1875,-3.96875 C 0.3125,-4 0.40625,-4 0.515625,-4 c 0.25,0 0.34375,0.15625 0.34375,0.625 l 0,2.53125 c 0,0.53125 -0.140625,0.6875 -0.703125,0.6875 l 0,0.15625 2.21875,0 0,-0.15625 C 1.84375,-0.171875 1.6875,-0.28125 1.6875,-0.671875 l 0,-2.8125 c 0,-0.015625 0.09375,-0.109375 0.15625,-0.1875 0.25,-0.21875 0.671875,-0.390625 1.03125,-0.390625 0.4375,0 0.65625,0.34375 0.65625,1.046875 l 0,2.15625 c 0,0.5625 -0.109375,0.671875 -0.6875,0.703125 l 0,0.15625 2.234375,0 0,-0.15625 c -0.5625,0 -0.71875,-0.171875 -0.71875,-0.796875 l 0,-2.5 C 4.671875,-3.890625 5,-4.0625 5.453125,-4.0625 c 0.5625,0 0.75,0.265625 0.75,1.09375 l 0,2.09375 c 0,0.578125 -0.078125,0.65625 -0.65625,0.71875 l 0,0.15625 2.171875,0 0,-0.15625 -0.25,-0.015625 C 7.171875,-0.1875 7.03125,-0.375 7.03125,-0.75 l 0,-2.0625 c 0,-1.171875 -0.375,-1.765625 -1.15625,-1.765625 -0.578125,0 -1.078125,0.25 -1.625,0.828125 -0.171875,-0.5625 -0.515625,-0.828125 -1.046875,-0.828125 -0.4375,0 -0.71875,0.125 -1.546875,0.765625 l 0,-0.75 -0.078125,-0.015625 c -0.5,0.1875 -0.84375,0.296875 -1.390625,0.4375 l 0,0.171875 z m 0,0"
                   id="path4144" />
              </symbol>
            </g>
          </defs>
          <g
             style="fill:#ffffff;fill-opacity:1"
             id="g4146">
            <g
               style="fill:#ffffff;fill-opacity:1"
               id="g4148">
              <use
                 style="fill:#ffffff;fill-opacity:1"
                 height="104.86572"
                 width="317.70236"
                 xlink:href="#textext-ff18ac51-1"
                 x="223.43201"
                 y="134.765"
                 id="use4150" />
            </g>
            <g
               style="fill:#ffffff;fill-opacity:1"
               id="g4152">
              <use
                 style="fill:#ffffff;fill-opacity:1"
                 height="104.86572"
                 width="317.70236"
                 xlink:href="#textext-ff18ac51-2"
                 x="230.90395"
                 y="134.765"
                 id="use4154" />
              <use
                 style="fill:#ffffff;fill-opacity:1"
                 height="104.86572"
                 width="317.70236"
                 xlink:href="#textext-ff18ac51-2"
                 x="238.65485"
                 y="134.765"
                 id="use4156" />
            </g>
          </g>
        </g>
      </g>
    </g>
  </g>
</svg>
